<svg xmlns="http://www.w3.org/2000/svg" width="60" height="60" fill="none" viewBox="0 0 60 60"><path fill="#B9FBC0" d="M0 10C0 4.477 4.477 0 10 0h40c5.523 0 10 4.477 10 10v40c0 5.523-4.477 10-10 10H10C4.477 60 0 55.523 0 50V10Z"/><path fill="#091540" fill-rule="evenodd" d="M35.363 35.255h-4.406a1 1 0 0 1 0-2h4.406a1 1 0 0 1 0 2Zm-6.855-4.222-3.163 3.163a.992.992 0 0 1-.706.293.999.999 0 0 1-.707-1.707l2.456-2.455-2.456-2.456a1 1 0 0 1 1.413-1.415l3.163 3.163a1 1 0 0 1 0 1.414Zm7.116-13.7H24.377c-4.213 0-7.044 2.96-7.044 7.368v10.596c0 4.408 2.83 7.37 7.044 7.37h11.246c4.213 0 7.044-2.962 7.044-7.37V24.701c0-4.408-2.831-7.368-7.043-7.368Z" clip-rule="evenodd"/></svg>