<svg xmlns="http://www.w3.org/2000/svg" width="60" height="60" fill="none" viewBox="0 0 60 60"><path fill="#BFD8BD" d="M0 10C0 4.477 4.477 0 10 0h40c5.523 0 10 4.477 10 10v40c0 5.523-4.477 10-10 10H10C4.477 60 0 55.523 0 50V10Z"/><path fill="#091540" fill-rule="evenodd" d="M23.675 15.75c-2.39 0-4.39.851-5.789 2.352-1.393 1.494-2.135 3.573-2.135 5.937v1.074h28.498V24.04c0-2.363-.737-4.442-2.129-5.937-1.397-1.501-3.397-2.352-5.794-2.352h-12.65Zm-2.24 4.951a1.125 1.125 0 0 0 0 2.25h.082a1.125 1.125 0 0 0 0-2.25h-.083Zm3.728 0a1.125 1.125 0 0 0 0 2.25h.083a1.125 1.125 0 0 0 0-2.25h-.083Zm3.73 0a1.125 1.125 0 0 0 0 2.25h.082a1.125 1.125 0 0 0 0-2.25h-.083Z" clip-rule="evenodd"/><path fill="#091540" d="M29.49 32.25a2.821 2.821 0 1 0 0 5.642 2.821 2.821 0 0 0 0-5.642Z"/><path fill="#091540" fill-rule="evenodd" d="M15.75 35.96v-8.597h28.5v8.596c0 2.364-.738 4.443-2.13 5.938-1.398 1.5-3.398 2.352-5.795 2.352h-12.65c-2.396 0-4.397-.852-5.794-2.352-1.392-1.495-2.13-3.574-2.13-5.938Zm8.669-.889a5.071 5.071 0 1 1 9.324 2.763l1.509 1.509a1.125 1.125 0 1 1-1.591 1.59l-1.532-1.531a5.071 5.071 0 0 1-7.71-4.33Z" clip-rule="evenodd"/></svg>