<svg xmlns="http://www.w3.org/2000/svg" width="60" height="60" fill="none" viewBox="0 0 60 60"><path fill="#A9D6E5" d="M0 10C0 4.477 4.477 0 10 0h40c5.523 0 10 4.477 10 10v40c0 5.523-4.477 10-10 10H10C4.477 60 0 55.523 0 50V10Z"/><path fill="#091540" fill-rule="evenodd" d="M19.32 19.197C20.633 17.788 22.502 17 24.71 17h11.246c2.212 0 4.082.788 5.394 2.197 1.305 1.4 1.983 3.335 1.983 5.505v10.596c0 2.17-.678 4.104-1.983 5.505C40.038 42.213 38.167 43 35.955 43H24.71c-2.213 0-4.083-.788-5.395-2.197-1.304-1.401-1.982-3.335-1.982-5.505V24.702c0-2.171.682-4.105 1.987-5.506Zm1.463 1.363c-.903.969-1.45 2.386-1.45 4.142v10.596c0 1.757.545 3.174 1.446 4.142.894.96 2.212 1.56 3.93 1.56h11.246c1.718 0 3.038-.6 3.932-1.56.901-.968 1.446-2.385 1.446-4.142V24.702c0-1.757-.545-3.174-1.446-4.142-.894-.96-2.213-1.56-3.931-1.56H24.709c-1.711 0-3.03.6-3.926 1.56Z" clip-rule="evenodd"/><path fill="#091540" fill-rule="evenodd" d="M23.685 24.188a1 1 0 0 1 1-1h2.644a1 1 0 1 1 0 2h-1.644v9.631h1.644a1 1 0 1 1 0 2h-2.644a1 1 0 0 1-1-1V24.187ZM32.339 24.188a1 1 0 0 1 1-1h2.644a1 1 0 0 1 1 1v11.631a1 1 0 0 1-1 1h-2.644a1 1 0 0 1 0-2h1.644v-9.632h-1.644a1 1 0 0 1-1-1Z" clip-rule="evenodd"/></svg>