<svg xmlns="http://www.w3.org/2000/svg" width="60" height="60" fill="none" viewBox="0 0 60 60"><path fill="#FFCFD2" d="M0 10C0 4.477 4.477 0 10 0h40c5.523 0 10 4.477 10 10v40c0 5.523-4.477 10-10 10H10C4.477 60 0 55.523 0 50V10Z"/><path fill="#091540" fill-rule="evenodd" d="m35.532 28.321-3.92 3.92a.967.967 0 0 1-.706.294.989.989 0 0 1-.707-.294 1.006 1.006 0 0 1 0-1.413l3.92-3.92a1.006 1.006 0 0 1 1.413 0c.4.387.4 1.027 0 1.413Zm-4.613-7.626c-6 0-10.88 4.88-10.88 10.88 0 .136.003.273.008.407a.396.396 0 0 0 .398.38h4.474a2.658 2.658 0 0 1 2.659 2.862c-.022.266.168.524.435.524h.226a2.666 2.666 0 0 1 2.583 3.323c-.059.23.1.477.337.477a2.66 2.66 0 0 1 2.58 2.018c.06.247.305.425.547.346 4.357-1.417 7.513-5.51 7.513-10.337 0-6-4.88-10.88-10.88-10.88ZM28.122 18.786h5.611a1 1 0 0 0 0-2h-5.61a1 1 0 0 0 0 2Z" clip-rule="evenodd"/><path fill="#091540" fill-rule="evenodd" d="M29.233 38.413a1 1 0 0 0-1-1h-5.721a1 1 0 0 0 0 2h5.721a1 1 0 0 0 1-1ZM31.152 41.214h-5.721a1 1 0 0 0 0 2h5.721a1 1 0 0 0 0-2ZM25.924 35.026a1 1 0 0 0-1-1H19.2a1 1 0 0 0 0 2h5.723a1 1 0 0 0 1-1Z" clip-rule="evenodd"/></svg>